<?xml version="1.0" encoding="UTF-8"?>
<svg width="231px" height="202px" viewBox="0 0 231 202" version="1.1" xmlns="http://www.w3.org/2000/svg" xmlns:xlink="http://www.w3.org/1999/xlink">
    <!-- Generator: Sketch 56.2 (81672) - https://sketch.com -->
    <title>undraw_selection_92i4</title>
    <desc>Created with Sketch.</desc>
    <g id="Page-1" stroke="none" stroke-width="1" fill="none" fill-rule="evenodd">
        <g id="06-00-02-LOGOS---Site---Select-Transaction-Empty-State" transform="translate(-605.000000, -358.000000)" fill-rule="nonzero">
            <g id="undraw_selection_92i4" transform="translate(605.000000, 358.000000)">
                <path d="M150,202 C142.27077,200.694194 134.83753,199.572765 127.700281,198.635713 L130.521801,193.180448 C129.570377,192.850923 125.390341,195.974992 125.390341,195.974992 L129.093131,180.139674 C124.308078,180.71513 121.87518,196.883948 121.87518,196.883948 L116.529033,191.417375 L119.117274,197.563234 C97.2730653,194.99793 78.4076933,194.046757 62.5396964,194.012473 L64.954639,189.343338 C64.0032151,189.013813 59.8231788,192.137879 59.8231788,192.137879 L63.5259688,176.302561 C58.7409157,176.878017 56.3080177,193.046837 56.3080177,193.046837 L50.9618712,187.580262 L53.7032289,194.089736 C42.8312183,194.268778 31.9755854,195.004101 21.1791609,196.292803 C23.6217469,189.019139 31.9194344,182.101312 31.9194344,182.101312 C25.5825396,183.98074 22.2584922,187.130126 20.5215812,190.066266 C20.3663667,175.058179 22.8688805,160.140574 27.9139499,146 C27.9139499,146 14.8157917,174.423158 16.4871065,193.501974 L16.6870076,196.889822 C5.5827303,198.475369 0,200.124986 0,200.124986 L150,202 Z" id="Path" fill="#9BC03C"></path>
                <path d="M94.5457228,164 L94.5455881,163.453333 C95.6391439,163.45306 96.7492134,163.430646 97.8453102,163.387134 L97.8673294,163.933268 C96.7639836,163.977313 95.6465276,163.999727 94.5457228,164 Z M91.2250485,163.936737 C90.1255995,163.894029 89.0100107,163.828634 87.9094754,163.742416 L87.9527109,163.197351 C89.0461319,163.2833 90.1543205,163.348162 91.2465315,163.390597 L91.2250485,163.936737 Z M101.182913,163.735208 L101.139139,163.190143 C102.230544,163.103392 103.335108,162.993151 104.421949,162.862624 L104.488012,163.405554 C103.393788,163.536869 102.281837,163.647646 101.182913,163.735197 L101.182913,163.735208 Z M84.6039729,163.416501 C83.5073288,163.285976 82.4006171,163.131961 81.314313,162.958722 L81.4015952,162.418995 C82.4805127,162.591162 83.5799728,162.744112 84.6692303,162.873573 L84.6039729,163.416501 Z M107.776863,162.944041 L107.689047,162.404314 C108.767696,162.231078 109.859772,162.03275 110.93493,161.815472 L111.044501,162.350932 C109.962226,162.570058 108.862763,162.769452 107.776863,162.944025 L107.776863,162.944041 Z M78.0460069,162.369347 C76.9636079,162.151533 75.8729973,161.908897 74.8041503,161.64891 L74.9349374,161.117725 C75.9966675,161.376378 77.0800153,161.617146 78.1550388,161.833356 L78.0460069,162.369347 Z M114.285684,161.626754 L114.154091,161.096104 C115.219044,160.835582 116.291389,160.550238 117.341432,160.247808 L117.494508,160.773122 C116.437208,161.077403 115.357614,161.364616 114.285684,161.626738 L114.285684,161.626754 Z M71.5942541,160.79848 C70.533734,160.494183 69.4663637,160.164794 68.4218212,159.819399 L68.5955743,159.300491 C69.6331346,159.64376 70.6933879,159.971014 71.7467965,160.273173 L71.5942541,160.79848 Z M120.665599,159.790029 L120.491306,159.271655 C121.529538,158.926784 122.575021,158.556024 123.599018,158.169246 L123.794526,158.680145 C122.763544,159.069574 121.710812,159.443008 120.665599,159.790013 L120.665599,159.790029 Z M65.2833589,158.709774 C64.2515598,158.321126 63.212267,157.905788 62.1941767,157.4747 L62.4096912,156.97181 C63.4209341,157.399962 64.4533904,157.81263 65.4783283,158.198339 L65.2833589,158.709774 Z M126.866788,157.449075 L126.650872,156.946185 C127.65634,156.519369 128.665834,156.066925 129.651161,155.601138 L129.88749,156.094953 C128.895447,156.563663 127.878971,157.019307 126.866788,157.449075 L126.866788,157.449075 Z M59.1585726,156.116574 C58.159548,155.64518 57.1579741,155.147628 56.18178,154.63753 L56.4377112,154.153858 C57.4073274,154.66022 58.4020538,155.154568 59.3943629,155.622753 L59.1585726,156.116574 Z M132.852061,154.620179 L132.595861,154.136507 C133.564536,153.629881 134.534824,153.097359 135.479599,152.554163 L135.755135,153.027158 C134.803916,153.574077 133.827183,154.110065 132.852061,154.620179 L132.852061,154.620179 Z M53.2685068,153.040505 C52.3100364,152.489834 51.3527732,151.913805 50.4231723,151.328434 L50.7175073,150.866648 C51.640797,151.448028 52.5917489,152.02031 53.5437761,152.56751 L53.2685068,153.040505 Z M138.592406,151.318824 L138.298071,150.85704 C139.220019,150.27648 140.144651,149.668146 141.046188,149.048605 L141.358786,149.498113 C140.451342,150.121904 139.520536,150.734502 138.592412,151.318824 L138.592406,151.318824 Z M47.6501985,149.504501 C46.7407413,148.879893 45.8335501,148.229657 44.9537791,147.57168 L45.2843701,147.134989 C46.1583798,147.788425 47.0595155,148.434389 47.9627962,149.054996 L47.6501985,149.504501 Z M144.050505,147.568212 L143.719645,147.131512 C144.591642,146.479677 145.464714,145.799284 146.314688,145.109005 L146.662734,145.532352 C145.807127,146.227169 144.928151,146.912104 144.050514,147.568212 L144.050505,147.568212 Z M42.3380585,145.532885 C41.4841842,144.839408 40.6327382,144.11924 39.8073347,143.392137 L40.1720339,142.983205 C40.9920639,143.705243 41.8378751,144.420874 42.6861036,145.109546 L42.3380585,145.532885 Z M149.191444,143.393468 L148.826745,142.984531 C149.646107,142.262758 150.461973,141.514562 151.251525,140.761025 L151.632334,141.155544 C150.837689,141.913891 150.016452,142.666893 149.191453,143.393468 L149.191444,143.393468 Z M37.3652433,141.153141 C36.571935,140.395603 35.7814427,139.610302 35.0159204,138.81913 L35.4123078,138.440093 C36.1728526,139.2262 36.9581062,140.006422 37.7463133,140.758623 L37.3652433,141.153141 Z M153.981915,138.82127 L153.585528,138.442227 C154.343658,137.658531 155.096951,136.847873 155.824735,136.032409 L156.23616,136.395429 C155.503555,137.215971 154.745158,138.032232 153.981926,138.82127 L153.981915,138.82127 Z M32.7627457,136.394363 C32.0294588,135.572761 31.3050324,134.7274 30.6093436,133.881774 L31.0352714,133.535838 C31.7261258,134.375858 32.4458524,135.215612 33.1741728,136.031341 L32.7627457,136.394363 Z M158.391311,133.881247 L157.965383,133.535305 C158.660401,132.690745 159.346289,131.822165 160.004248,130.95385 L160.443604,131.282703 C159.781349,132.156898 159.090638,133.031084 158.391322,133.881247 L158.391311,133.881247 Z M28.5594679,131.286707 C27.8966745,130.411988 27.242879,129.512442 26.6163416,128.612631 L27.0685869,128.301394 C27.6909609,129.195334 28.3403261,130.088995 28.9988102,130.957854 L28.5594679,131.286707 Z M162.389818,128.603561 L161.93757,128.292852 C162.56223,127.394908 163.176144,126.474009 163.761861,125.55578 L164.226462,125.848332 C163.636728,126.772705 163.018784,127.699746 162.389829,128.603561 L162.389818,128.603561 Z M24.783064,125.863819 C24.193723,124.940249 23.6149887,123.991858 23.0628387,123.044799 L23.5387176,122.770932 C24.0871056,123.711585 24.6620916,124.653569 25.2473955,125.570999 L24.783064,125.863819 Z M165.950859,123.021311 L165.474983,122.747431 C166.025532,121.801697 166.562896,120.834096 167.072344,119.871822 L167.558964,120.126471 C167.046293,121.095162 166.505157,122.069181 165.950859,123.021311 Z M21.4587651,120.159583 C20.9463608,119.192504 20.4465818,118.201405 19.9733897,117.213771 L20.4699458,116.978877 C20.9400496,117.959835 21.4364737,118.944262 21.9453855,119.904934 L21.4587651,120.159583 Z M169.048635,117.168668 L168.551809,116.933771 C169.022587,115.949344 169.479934,114.941426 169.910696,113.937778 L170.416652,114.152389 C169.982936,115.162704 169.522636,116.177561 169.048635,117.168668 Z M18.6092672,114.212443 C18.1760875,113.205592 17.7587562,112.178456 17.36868,111.159326 L17.8826931,110.965005 C18.2702172,111.976927 18.6847298,112.997388 19.114967,113.997299 L18.6092672,114.212443 Z M171.661133,111.082186 L171.146853,110.888393 C171.536803,109.865794 171.910621,108.823445 172.257324,107.790703 L172.778858,107.963672 C172.430005,109.003624 172.053764,110.052648 171.661133,111.082186 Z M16.2504182,108.050157 C15.9002226,107.011011 15.5669476,105.950507 15.2598691,104.898547 L15.7881162,104.746399 C16.0931926,105.791154 16.4241906,106.844447 16.7719663,107.876656 L16.2504182,108.050157 Z M173.766063,104.810463 L173.23755,104.658848 C173.541015,103.615695 173.827562,102.549855 174.089403,101.49042 L174.62329,101.620679 C174.359837,102.687323 174.071409,103.760635 173.766063,104.810463 Z M14.3988779,101.709568 C14.1346196,100.645062 13.8890283,99.5616031 13.6685445,98.4888236 L14.2075441,98.3793808 C14.4264164,99.4449553 14.6703989,100.521474 14.9327762,101.578772 L14.3988779,101.709568 Z M175.349999,98.3993998 L174.810741,98.2904927 C175.028265,97.2257191 175.227,96.1401257 175.401561,95.0641427 L175.944578,95.1511612 C175.768942,96.2343547 175.568868,97.327156 175.349999,98.3993998 Z M13.0700626,95.241118 C12.8937575,94.1619315 12.7369196,93.0621903 12.6039875,91.972322 L13.1499582,91.9066563 C13.2820874,92.9893141 13.4378472,94.0815714 13.6130798,95.153561 L13.0700626,95.241118 Z M176.407029,91.8810368 L175.860789,91.8158986 C175.991573,90.7337711 176.10195,89.6359023 176.188423,88.5528427 L176.736811,88.596084 C176.649532,89.6864936 176.538619,90.7917069 176.407029,91.8810368 L176.407029,91.8810368 Z M12.270575,88.6877847 C12.1818188,87.5959183 12.1141441,86.4871024 12.0694292,85.3920353 L12.6188925,85.3698789 C12.6633379,86.457607 12.7306111,87.5590838 12.8186963,88.6437425 L12.270575,88.6877847 Z M176.934459,85.3008785 L176.38501,85.2792578 C176.427979,84.189928 176.45,83.0867155 176.45,82.00019 L176.449725,81.8190792 L176.999725,81.8190792 L177,81.9989873 C177,83.0937893 176.977975,84.2042069 176.934459,85.3008785 Z M12.5499995,82.090811 L12,82.090811 L12.0001347,81.9989873 C12.0001347,80.9326147 12.0209467,79.8526246 12.0621692,78.7903875 L12.6116325,78.8114752 C12.5708115,79.8667724 12.5501343,80.9395546 12.5501343,82.0001845 L12.5499995,82.090811 Z M176.377211,78.5408121 C176.331836,77.4553527 176.263611,76.3538704 176.173914,75.2672137 L176.722302,75.2226384 C176.812269,76.3166396 176.881019,77.4253215 176.926671,78.5181227 L176.377211,78.5408121 Z M12.8043303,75.5374777 L12.2559423,75.4947693 C12.3424159,74.4001012 12.4522564,73.2947567 12.582235,72.2091633 L13.1284753,72.2737575 C12.9992996,73.3521458 12.890265,74.4502825 12.8043275,75.5374777 L12.8043303,75.5374777 Z M175.839311,72.0045622 C175.706646,70.9264417 175.549811,69.8341762 175.372565,68.7581796 L175.915582,68.6699584 C176.093634,69.7531492 176.251811,70.8527565 176.385007,71.9383499 L175.839311,72.0045622 Z M13.5839546,69.0257868 L13.0409373,68.939304 C13.2152294,67.8569031 13.4140955,66.7637111 13.6322941,65.6903958 L14.1712936,65.7985019 C13.9546818,66.8647433 13.7571604,67.9504707 13.5839409,69.0257868 L13.5839546,69.0257868 Z M174.774237,65.5329092 C174.553484,64.464667 174.308294,63.388684 174.045381,62.3344528 L174.579265,62.2028591 C174.84406,63.2641614 175.090861,64.3476201 175.312964,65.4229362 L174.774237,65.5329092 Z M14.8892519,62.597643 L14.3549604,62.4679161 C14.6165347,61.4039461 14.9038874,60.330363 15.2089639,59.2768015 L15.7374804,59.4280151 C15.434417,60.4745055 15.1490772,61.5408781 14.8892519,62.597643 Z M173.18679,59.1678945 C172.880638,58.1238095 172.548705,57.070915 172.199585,56.0385724 L172.721119,55.8645355 C173.072387,56.903818 173.406738,57.9637864 173.71477,59.0149453 L173.18679,59.1678945 Z M16.7142136,56.2954896 L16.1922778,56.1230544 C16.540323,55.0821729 16.9152247,54.0324818 17.3066428,53.0032088 L17.8211949,53.1964556 C17.432326,54.2189281 17.0598415,55.261548 16.7142136,56.2954896 Z M171.085085,52.9515596 C170.694338,51.9346987 170.278615,50.9149021 169.849465,49.9203315 L170.354884,49.7049228 C170.786988,50.7061655 171.205664,51.732768 171.599098,52.756435 L171.085085,52.9515596 Z M19.0537245,50.1456185 L18.5474995,49.9315436 C18.9797386,48.9216226 19.4389662,47.9062322 19.912293,46.9139412 L20.4092533,47.148035 C19.939023,48.1337878 19.4830074,49.1423723 19.0537245,50.1456185 L19.0537245,50.1456185 Z M168.491117,46.9400883 C168.020342,45.9601875 167.522978,44.9763042 167.012718,44.0157663 L167.498802,43.7604509 C168.012815,44.7275297 168.51367,45.717962 168.987401,46.7046579 L168.491117,46.9400883 Z M21.8857655,44.2082205 L21.3986089,43.9543729 C21.9112772,42.9831586 22.451341,42.008607 23.003623,41.0576795 L23.4800381,41.3310131 C22.9313833,42.2755473 22.3949441,43.2436783 21.8857655,44.2082205 L21.8857655,44.2082205 Z M165.415899,41.1521709 C164.8659,40.211119 164.290119,39.2696653 163.704133,38.3537055 L164.168195,38.0603529 C164.75821,38.9824519 165.33775,39.9303098 165.891509,40.8775035 L165.415899,41.1521709 Z M25.1895218,38.5209337 L24.724654,38.2286499 C25.3146687,37.3014779 25.9316719,36.3737728 26.5583524,35.471425 L27.0108672,35.7819948 C26.3883503,36.6783348 25.7756426,37.5997695 25.1895218,38.5209337 L25.1895218,38.5209337 Z M161.879842,35.6250412 C161.255992,34.7315001 160.605551,33.8383636 159.946789,32.9708493 L160.385606,32.6414605 C161.048936,33.514846 161.70368,34.4138592 162.331551,35.3135366 L161.879842,35.6250412 Z M28.941228,33.1185998 L28.5016052,32.790277 C29.1643958,31.9134229 29.853911,31.038433 30.5509446,30.1893387 L30.9771392,30.53501 C30.2846706,31.3783616 29.5997232,32.2476087 28.941228,33.1185998 Z M157.907655,30.3950058 C157.213979,29.5537835 156.493177,28.7149666 155.765932,27.9019059 L156.17682,27.5386182 C156.909169,28.3571484 157.634534,29.2015796 158.333044,30.0485337 L157.907655,30.3950058 Z M33.1152403,28.0349674 L32.7035465,27.6727485 C33.4337478,26.8527478 34.1912044,26.0356827 34.9549695,25.2442427 L35.3518931,25.6227468 C34.5932238,26.4088404 33.8407365,27.2205673 33.1152348,28.0349674 L33.1152403,28.0349674 Z M153.525119,25.495152 C152.764038,24.7102528 151.97797,23.9310909 151.188427,23.1791585 L151.568968,22.7843719 C152.363622,23.5413774 153.155052,24.3257435 153.92097,25.1158497 L153.525119,25.495152 Z M37.6832173,23.3016775 L37.3018697,22.9076918 C38.0954502,22.1486855 38.9160165,21.3948807 39.7404795,20.6669716 L40.1057122,21.0756381 C39.2866309,21.7987393 38.4715536,22.5477388 37.6832118,23.3016775 L37.6832173,23.3016775 Z M148.760426,20.9573885 C147.93865,20.2352167 147.091898,19.5206517 146.244071,18.8337152 L146.59158,18.4099662 C147.445047,19.1015767 148.297439,19.8208129 149.124586,20.5479212 L148.760426,20.9573885 Z M42.615349,18.9482229 L42.2667648,18.5254114 C43.120089,17.8307314 43.9982705,17.1448637 44.8767132,16.4866164 L45.2078404,16.9230426 C44.3351727,17.5768838 43.4629065,18.2583508 42.615349,18.9482229 Z M143.64311,16.8116045 C142.765742,16.1570991 141.863669,15.5120675 140.962668,14.8943992 L141.274729,14.4443583 C142.181907,15.0661675 143.08989,15.7154659 143.973434,16.3743665 L143.64311,16.8116045 Z M47.8796831,15.0026366 L47.5662796,14.5533992 C48.472918,13.9289222 49.403058,13.3153895 50.3309126,12.7297505 L50.6257866,13.1912688 C49.7041112,13.7729034 48.7801505,14.3822979 47.8796886,15.0026366 L47.8796831,15.0026366 Z M138.205969,13.0853001 C137.27865,12.5031297 136.32717,11.9320402 135.377552,11.3878987 L135.652552,10.9143702 C136.608069,11.462106 137.566,12.0370659 138.499767,12.6231067 L138.205969,13.0853001 Z M53.4421279,11.4916097 L53.1661876,11.0186141 C54.1171368,10.4704792 55.0933337,9.93342251 56.0673801,9.42265503 L56.3241198,9.90606182 C55.3563792,10.4134892 54.3867631,10.9469433 53.4421224,11.4916097 L53.4421279,11.4916097 Z M132.482267,9.80476167 C131.510907,9.29893606 130.515644,8.80578766 129.523871,8.33906514 L129.759125,7.84498194 C130.757611,8.31477399 131.759856,8.8112598 132.737395,9.32055675 L132.482267,9.80476167 Z M59.266939,8.43809389 L59.0302082,7.94454642 C60.0219811,7.47462044 61.0377862,7.0179074 62.0495653,6.58708725 L62.2660203,7.08957819 C61.261086,7.51746274 60.2519909,7.97110624 59.2669335,8.43809389 L59.266939,8.43809389 Z M126.507204,6.99335111 C125.496365,6.56667743 124.463505,6.15519836 123.43709,5.77002218 L123.631515,5.25859049 C124.664645,5.64630321 125.704757,6.06070695 126.722039,6.49019323 L126.507204,6.99335111 Z M65.3165377,5.86304579 L65.1206251,5.3521471 C66.1497264,4.96216845 67.2019222,4.58766868 68.2479416,4.23892786 L68.4227727,4.75729949 C67.3838566,5.1036377 66.3387778,5.47573487 65.3165267,5.86304579 L65.3165377,5.86304579 Z M120.318367,4.67134975 C119.279061,4.328748 118.218541,4.0026966 117.166075,3.70227022 L117.318079,3.17695866 C118.377524,3.47938584 119.445029,3.80757198 120.491317,4.15244239 L120.318367,4.67134975 Z M71.5719654,3.77740962 L71.4183505,3.25263106 C72.4760518,2.94673254 73.5553736,2.65818524 74.6262227,2.39486116 L74.7583518,2.92551092 C73.6946198,3.18709934 72.6225497,3.47377977 71.5719654,3.77740962 Z M113.97684,2.86118187 C112.914975,2.60373173 111.831226,2.36416306 110.755933,2.14914796 L110.864428,1.61315725 C111.946973,1.82963743 113.037974,2.07093902 114.107091,2.3299909 L113.97684,2.86118187 Z M77.976586,2.20307393 L77.8662093,1.6676135 C78.9444559,1.44820045 80.0436574,1.24746975 81.1333082,1.07089901 L81.2219324,1.61035832 C80.1393876,1.78586579 79.0475808,1.98525989 77.976586,2.20307393 Z M107.508846,1.56725361 C106.427244,1.39587347 105.327647,1.24400388 104.24054,1.11614391 L104.305261,0.573216001 C105.399619,0.70200804 106.506601,0.854823365 107.595322,1.02752644 L107.508846,1.56725361 Z M84.4883602,1.1483098 L84.421758,0.605647028 C85.5158473,0.47324972 86.6276631,0.361013495 87.7263201,0.272387822 L87.7709003,0.817185334 C86.679495,0.905420139 85.5750658,1.0167161 84.4883602,1.1483098 Z M100.956924,0.795832517 C99.8665914,0.711350581 98.7582681,0.647554529 97.6628341,0.606313962 L97.6837808,0.0599201823 C98.7864666,0.101559816 99.9020416,0.165754935 100.999623,0.250772605 L100.956924,0.795832517 Z M91.0645862,0.616856437 L91.0420362,0.0707359911 C92.1417602,0.0256359543 93.2590842,0.00185593485 94.36298,0 L94.3637857,0.546667113 C93.267271,0.548523048 92.1571987,0.572147267 91.0645862,0.616856437 L91.0645862,0.616856437 Z" id="Shape" fill="#9BC03C"></path>
                <path d="M68.1752317,113 C68.1752317,113 65.7767991,123 67.8325993,123 C69.8883995,123 74,118.333332 74,118.333332 L74,115.666668 L68.1752317,113 Z" id="Path" fill="#A0616A"></path>
                <polygon id="Path" fill="#D0CDE1" points="73 105 67 114 71.333413 114"></polygon>
                <rect id="Rectangle" fill="#A0616A" x="70" y="182" width="8" height="7"></rect>
                <polygon id="Path" fill="#A0616A" points="94 181.923016 95.6665711 189 104 187.153704 102.000115 181"></polygon>
                <path d="M70.8975016,115.852351 C70.8975016,115.852351 68.3670661,117.130889 68.0507644,122.884324 C67.7344627,128.63776 68.9996723,143.66058 68.9996723,143.66058 C68.9996723,143.66058 67.7344627,150.372908 68.9996723,156.445966 C70.2648819,162.519024 67.7344627,184.57382 69.315974,184.57382 C70.8974853,184.57382 79.1213572,185.532724 79.4376589,184.57382 C79.7539607,183.614916 80.0702651,169.231355 80.0702651,169.231355 C80.0702651,169.231355 82.600687,161.879757 80.0702651,157.40487 C80.0702651,157.40487 85.7637124,162.199391 85.7637124,163.477931 C85.7637124,164.756472 91.7734614,184.57382 94.620185,184.893454 C97.4669087,185.213088 105.374476,184.57382 103.792962,181.697108 C102.211448,178.820396 98.4158165,165.715373 98.4158165,165.715373 C98.4158165,165.715373 95.5690929,156.126332 90.5082518,151.971082 L93.0386737,131.514461 C93.0386737,131.514461 98.4158165,117.77017 95.2527912,115.852362 C92.0897658,113.934554 70.8975016,115.852351 70.8975016,115.852351 Z" id="Path" fill="#2F2E41"></path>
                <circle id="Oval" fill="#A0616A" cx="80.5" cy="55.5" r="8.5"></circle>
                <path d="M76,61.206282 C76,61.206282 79.3333324,71.6073937 78.3333324,72.8681363 C77.3333324,74.1288789 89,65.9340736 89,65.9340736 C89,65.9340736 84.6666676,63.0974067 86.3333324,59 L76,61.206282 Z" id="Path" fill="#A0616A"></path>
                <path d="M88.9725109,64 C88.9725109,64 85.1202914,65.2705085 83.1941816,67.4938943 C81.2680719,69.7172801 76.7738148,70.0349086 76.7738148,70.0349086 C76.7738148,70.0349086 72.8008768,72.2487362 71.3165029,76.0698144 C69.7345073,80.1421933 70.6540261,85.8757936 71.3165029,87.1867487 C72.6005779,89.727763 72.6005779,96.0802946 72.6005779,96.0802946 L70.9954856,110.691134 C70.9954856,110.691134 65.2171563,116.090788 69.7114133,116.72604 C74.2056703,117.361292 82.2311268,116.408414 87.0464012,116.72604 C91.8616756,117.043666 97.3189875,117.67892 95.7138951,114.502654 C94.1088027,111.326388 92.1826929,109.103 94.1088027,102.750466 C95.6160468,97.7794044 95.5506682,79.1932819 95.4509525,71.3446119 C95.4231429,69.1529003 94.2493681,67.1320064 92.3494751,66.004783 L88.9725109,64 Z" id="Path" fill="#D0CDE1"></path>
                <path d="M76.6708321,113 C76.6708321,113 75.2446012,116.005077 75.1034292,117.799999 C74.0062482,131.750001 82,117.799999 82,117.799999 L82,115.400001 L76.6708321,113 Z" id="Path" fill="#A0616A"></path>
                <path d="M100.034532,186.833333 C100.034532,186.833333 95.1393674,183.370372 95.1393674,185.259261 C95.1393674,187.148149 89.5915157,194.703704 89.5915157,194.703704 C89.5915157,194.703704 80.4538728,201 87.9597932,201 C95.4657136,201 98.7291559,199.740739 98.7291559,199.740739 L106.56142,194.703704 C106.56142,194.703704 108.519486,192.5 107.866799,189.981482 C107.214112,187.462963 104.9297,184 104.9297,184 C104.9297,184 102.318933,187.462963 100.034532,186.833333 Z" id="Path" fill="#2F2E41"></path>
                <path d="M71.2368922,187.083666 C71.2368922,187.083666 70.6130702,183.827937 68.4296971,185.455803 C66.246324,187.083668 60.3200215,191.967263 60.3200215,191.967263 C60.3200215,191.967263 49.4031508,194.571845 56.265185,197.827576 C63.1272193,201.083308 78.7227458,196.525282 78.7227458,196.525282 C78.7227458,196.525282 79.3465678,186.106947 78.7227458,186.432522 C78.0989237,186.758096 71.5488019,187.734812 71.2368922,187.083666 Z" id="Path" fill="#2F2E41"></path>
                <polygon id="Path" fill="#000000" opacity="0.1" points="84.0294855 75 85 94.3366115 75.595252 113 74 112.405338 83.7059806 94.970554"></polygon>
                <path d="M92.257394,68.4752489 L94.6421778,68 C94.6421778,68 101.796524,73.227724 99.5707277,83.6831692 C97.3449316,94.1386145 87.4878291,109.980199 87.4878291,109.980199 C87.4878291,109.980199 85.2620331,112.831684 84.6260902,113.465348 C83.9901473,114.099013 82.7182643,113.465348 83.3542072,114.415843 C83.9901501,115.366338 82.4002942,116 82.4002942,116 C82.4002942,116 75.4049306,116 76.0408735,113.465348 C76.6768164,110.930697 87.4878291,92.8712887 87.4878291,92.8712887 L85.897987,76.0792091 C85.897987,76.0792091 84.6260902,67.8415846 92.257394,68.4752489 Z" id="Path" fill="#D0CDE1"></path>
                <polygon id="Path" fill="#000000" opacity="0.1" points="96 98.2501037 96 96 85 114"></polygon>
                <path d="M74.6535909,47.7105505 L73.2844536,47.1797206 C73.2844536,47.1797206 76.1471567,44.1274711 80.1300773,44.392894 L79.0098571,43.1985227 C79.0098571,43.1985227 81.7481071,42.1368814 84.2374126,44.9237133 C85.5459927,46.3886893 87.0600366,48.1106865 88.0038889,50.0505 L89.470124,50.0505 L88.8581703,51.3554438 L91,52.6603877 L88.8016177,52.4259911 C89.0098475,53.5525841 88.9385785,54.7109767 88.593687,55.8056526 L88.6526188,56.8370798 C88.6526188,56.8370798 86.1043842,53.0188074 86.1043842,52.4879774 L86.1043842,53.8150417 C86.1043842,53.8150417 84.7352605,52.6206889 84.7352605,51.8244546 L83.9884708,52.753403 L83.6150869,51.2936194 L79.009868,52.7534004 L79.7566577,51.559045 L76.8939409,51.9571634 L78.0141612,50.4973851 C78.0141612,50.4973851 74.7780659,52.2225758 74.6535772,53.6823461 C74.5290885,55.1421165 72.9110943,57 72.9110943,57 L72.1643073,55.6729331 C72.1643073,55.6729331 71.0441008,49.7011376 74.6535909,47.7105505 Z" id="Path" fill="#2F2E41"></path>
                <rect id="Rectangle" fill="#E6E6E6" x="113" y="45" width="118" height="23"></rect>
                <rect id="Rectangle" fill="#E6E6E6" x="113" y="72" width="118" height="23"></rect>
                <circle id="Oval" fill="#FFFFFF" cx="124" cy="56" r="7"></circle>
                <rect id="Rectangle" fill="#FFFFFF" x="142" y="54" width="69" height="1"></rect>
                <rect id="Rectangle" fill="#FFFFFF" x="142" y="57" width="69" height="1"></rect>
                <circle id="Oval" fill="#FFFFFF" cx="124" cy="84" r="7"></circle>
                <rect id="Rectangle" fill="#FFFFFF" x="142" y="82" width="69" height="1"></rect>
                <rect id="Rectangle" fill="#FFFFFF" x="142" y="85" width="69" height="1"></rect>
                <rect id="Rectangle" fill="#FFFFFF" x="142" y="82" width="69" height="1"></rect>
                <rect id="Rectangle" fill="#FFFFFF" x="142" y="85" width="69" height="1"></rect>
                <rect id="Rectangle" fill="#E6E6E6" x="113" y="98" width="118" height="23"></rect>
                <circle id="Oval" fill="#FFFFFF" cx="124" cy="111" r="7"></circle>
                <rect id="Rectangle" fill="#FFFFFF" x="142" y="108" width="69" height="1"></rect>
                <rect id="Rectangle" fill="#FFFFFF" x="142" y="112" width="69" height="1"></rect>
                <rect id="Rectangle" fill="#FFFFFF" x="142" y="108" width="69" height="1"></rect>
                <rect id="Rectangle" fill="#FFFFFF" x="142" y="112" width="69" height="1"></rect>
            </g>
        </g>
    </g>
</svg>